# xmcd
# 
# Track frame offsets:
#     150
#     19542
#     39747
#     57897
#     78640
#     91482
#     117760
#     141987
#     162447
#     184292
#     199475
#     217680
# 
# Disc length: 3953
# 
# Revision: 28
# Processed by: cddbd v1.5.2PL0 Copyright (c) Steve Scherf et al.
# Submitted via: BonkEnc v1.0
# 
DISCID=a80f6f0c
DTITLE=Korn - Korn
DYEAR=1994
DGENRE=Alternative Metal - Metal - Rock
TTITLE0=Blind
TTITLE1=Ball Tongue
TTITLE2=Need To
TTITLE3=Clown
TTITLE4=Divine
TTITLE5=Faget
TTITLE6=Shoots And Ladders
TTITLE7=Predictable
TTITLE8=Fake
TTITLE9=Lies
TTITLE10=Helmet In The Bush
TTITLE11=Daddy
EXTD=
EXTT0=
EXTT1=
EXTT2=
EXTT3=
EXTT4=
EXTT5=
EXTT6=
EXTT7=
EXTT8=
EXTT9=
EXTT10=
EXTT11=
PLAYORDER=
